<svg width="197" height="197" viewBox="0 0 197 197" fill="none" xmlns="http://www.w3.org/2000/svg">
<path d="M0 0H8.95455V8.95455H0V0Z" fill="#F1F1F1"/>
<path d="M107.455 0H116.409V8.95455H107.455V0Z" fill="#F1F1F1"/>
<path d="M53.7273 0H62.6818V8.95455H53.7273V0Z" fill="#F1F1F1"/>
<path d="M161.182 0H170.136V8.95455H161.182V0Z" fill="#F1F1F1"/>
<path d="M26.8636 0H35.8182V8.95455H26.8636V0Z" fill="#F1F1F1"/>
<path d="M134.318 0H143.273V8.95455H134.318V0Z" fill="#F1F1F1"/>
<path d="M80.5909 0H89.5455V8.95455H80.5909V0Z" fill="#F1F1F1"/>
<path d="M188.045 0H197V8.95455H188.045V0Z" fill="#F1F1F1"/>
<path d="M0 107.455H8.95455V116.409H0V107.455Z" fill="#F1F1F1"/>
<path d="M107.455 107.455H116.409V116.409H107.455V107.455Z" fill="#F1F1F1"/>
<path d="M53.7273 107.455H62.6818V116.409H53.7273V107.455Z" fill="#F1F1F1"/>
<path d="M161.182 107.455H170.136V116.409H161.182V107.455Z" fill="#F1F1F1"/>
<path d="M26.8636 107.455H35.8182V116.409H26.8636V107.455Z" fill="#F1F1F1"/>
<path d="M134.318 107.455H143.273V116.409H134.318V107.455Z" fill="#F1F1F1"/>
<path d="M80.5909 107.455H89.5455V116.409H80.5909V107.455Z" fill="#F1F1F1"/>
<path d="M188.045 107.455H197V116.409H188.045V107.455Z" fill="#F1F1F1"/>
<path d="M0 53.7273H8.95455V62.6818H0V53.7273Z" fill="#F1F1F1"/>
<path d="M107.455 53.7273H116.409V62.6818H107.455V53.7273Z" fill="#F1F1F1"/>
<path d="M53.7273 53.7273H62.6818V62.6818H53.7273V53.7273Z" fill="#F1F1F1"/>
<path d="M161.182 53.7273H170.136V62.6818H161.182V53.7273Z" fill="#F1F1F1"/>
<path d="M26.8636 53.7273H35.8182V62.6818H26.8636V53.7273Z" fill="#F1F1F1"/>
<path d="M134.318 53.7273H143.273V62.6818H134.318V53.7273Z" fill="#F1F1F1"/>
<path d="M80.5909 53.7273H89.5455V62.6818H80.5909V53.7273Z" fill="#F1F1F1"/>
<path d="M188.045 53.7273H197V62.6818H188.045V53.7273Z" fill="#F1F1F1"/>
<path d="M0 161.182H8.95455V170.136H0V161.182Z" fill="#F1F1F1"/>
<path d="M107.455 161.182H116.409V170.136H107.455V161.182Z" fill="#F1F1F1"/>
<path d="M53.7273 161.182H62.6818V170.136H53.7273V161.182Z" fill="#F1F1F1"/>
<path d="M161.182 161.182H170.136V170.136H161.182V161.182Z" fill="#F1F1F1"/>
<path d="M26.8636 161.182H35.8182V170.136H26.8636V161.182Z" fill="#F1F1F1"/>
<path d="M134.318 161.182H143.273V170.136H134.318V161.182Z" fill="#F1F1F1"/>
<path d="M80.5909 161.182H89.5455V170.136H80.5909V161.182Z" fill="#F1F1F1"/>
<path d="M188.045 161.182H197V170.136H188.045V161.182Z" fill="#F1F1F1"/>
<path d="M0 26.8636H8.95455V35.8182H0V26.8636Z" fill="#F1F1F1"/>
<path d="M107.455 26.8636H116.409V35.8182H107.455V26.8636Z" fill="#F1F1F1"/>
<path d="M53.7273 26.8636H62.6818V35.8182H53.7273V26.8636Z" fill="#F1F1F1"/>
<path d="M161.182 26.8636H170.136V35.8182H161.182V26.8636Z" fill="#F1F1F1"/>
<path d="M26.8636 26.8636H35.8182V35.8182H26.8636V26.8636Z" fill="#F1F1F1"/>
<path d="M134.318 26.8636H143.273V35.8182H134.318V26.8636Z" fill="#F1F1F1"/>
<path d="M80.5909 26.8636H89.5455V35.8182H80.5909V26.8636Z" fill="#F1F1F1"/>
<path d="M188.045 26.8636H197V35.8182H188.045V26.8636Z" fill="#F1F1F1"/>
<path d="M0 134.318H8.95455V143.273H0V134.318Z" fill="#F1F1F1"/>
<path d="M107.455 134.318H116.409V143.273H107.455V134.318Z" fill="#F1F1F1"/>
<path d="M53.7273 134.318H62.6818V143.273H53.7273V134.318Z" fill="#F1F1F1"/>
<path d="M161.182 134.318H170.136V143.273H161.182V134.318Z" fill="#F1F1F1"/>
<path d="M26.8636 134.318H35.8182V143.273H26.8636V134.318Z" fill="#F1F1F1"/>
<path d="M134.318 134.318H143.273V143.273H134.318V134.318Z" fill="#F1F1F1"/>
<path d="M80.5909 134.318H89.5455V143.273H80.5909V134.318Z" fill="#F1F1F1"/>
<path d="M188.045 134.318H197V143.273H188.045V134.318Z" fill="#F1F1F1"/>
<path d="M0 80.5909H8.95455V89.5455H0V80.5909Z" fill="#F1F1F1"/>
<path d="M107.455 80.5909H116.409V89.5455H107.455V80.5909Z" fill="#F1F1F1"/>
<path d="M53.7273 80.5909H62.6818V89.5455H53.7273V80.5909Z" fill="#F1F1F1"/>
<path d="M161.182 80.5909H170.136V89.5455H161.182V80.5909Z" fill="#F1F1F1"/>
<path d="M26.8636 80.5909H35.8182V89.5455H26.8636V80.5909Z" fill="#F1F1F1"/>
<path d="M134.318 80.5909H143.273V89.5455H134.318V80.5909Z" fill="#F1F1F1"/>
<path d="M80.5909 80.5909H89.5455V89.5455H80.5909V80.5909Z" fill="#F1F1F1"/>
<path d="M188.045 80.5909H197V89.5455H188.045V80.5909Z" fill="#F1F1F1"/>
<path d="M0 188.045H8.95455V197H0V188.045Z" fill="#F1F1F1"/>
<path d="M107.455 188.045H116.409V197H107.455V188.045Z" fill="#F1F1F1"/>
<path d="M53.7273 188.045H62.6818V197H53.7273V188.045Z" fill="#F1F1F1"/>
<path d="M161.182 188.045H170.136V197H161.182V188.045Z" fill="#F1F1F1"/>
<path d="M26.8636 188.045H35.8182V197H26.8636V188.045Z" fill="#F1F1F1"/>
<path d="M134.318 188.045H143.273V197H134.318V188.045Z" fill="#F1F1F1"/>
<path d="M80.5909 188.045H89.5455V197H80.5909V188.045Z" fill="#F1F1F1"/>
<path d="M188.045 188.045H197V197H188.045V188.045Z" fill="#F1F1F1"/>
</svg>
