<svg width="25" height="33" viewBox="0 0 25 33" fill="none" xmlns="http://www.w3.org/2000/svg">
<path d="M12.9414 0.00687807C5.83551 -0.21897 -3.05176e-05 5.14632 -3.05176e-05 11.7969C-3.05176e-05 19.3446 7.68017 24.8222 11.9849 32.6998C12.2035 33.0997 12.814 33.1002 13.0333 32.7003C16.9275 25.6122 23.5834 20.8591 24.8168 14.0305C26.094 6.96416 20.5377 0.248404 12.9414 0.00687807ZM12.5085 17.9762C8.88994 17.9762 5.95643 15.2095 5.95643 11.7969C5.95643 8.38434 8.89001 5.61768 12.5085 5.61768C16.127 5.61768 19.0606 8.38434 19.0606 11.7969C19.0606 15.2095 16.127 17.9762 12.5085 17.9762Z" fill="#1E213D"/>
</svg>
